<?xml version="1.0" encoding="iso-8859-1"?>
<!-- Generator: Adobe Illustrator 19.0.0, SVG Export Plug-In . SVG Version: 6.00 Build 0)  -->
<svg version="1.1" id="Capa_1" xmlns="http://www.w3.org/2000/svg" xmlns:xlink="http://www.w3.org/1999/xlink" x="0px" y="0px"
	 viewBox="0 0 512.002 512.002" style="enable-background:new 0 0 512.002 512.002;" xml:space="preserve">
<g>
	<g>
		<path d="M298.74,138.931c-1.86-1.861-4.44-2.93-7.07-2.93c-2.64,0-5.21,1.07-7.07,2.93c-1.87,1.86-2.93,4.44-2.93,7.07
			s1.06,5.21,2.93,7.069c1.86,1.861,4.43,2.931,7.07,2.931c2.63,0,5.21-1.071,7.07-2.931c1.86-1.859,2.93-4.439,2.93-7.069
			S300.6,140.792,298.74,138.931z"/>
	</g>
</g>
<g>
	<g>
		<path d="M511.891,141.522c-0.189-3.162-1.686-6.109-4.338-7.841c-2.621-1.71-5.716-2.155-8.653-1.104
			c-2.984,0.809-5.952,0.701-8.875-0.305c-0.925-0.318-1.861-0.583-2.801-0.821c4.844-8.623,7.495-18.464,7.495-28.705v-2.465
			c0-3.384-1.711-6.537-4.547-8.382c-2.837-1.846-6.413-2.133-9.506-0.76l-51.18,22.688c-0.107,0.047-0.206,0.106-0.31,0.157
			c-4.166-0.676-8.397-1.039-12.662-1.039c-4.265,0-8.496,0.363-12.662,1.04c-0.105-0.051-0.203-0.109-0.31-0.157l-51.18-22.688
			c-3.093-1.373-6.67-1.086-9.506,0.76c-2.836,1.845-4.547,4.998-4.547,8.382v2.465c0,10.237,2.649,20.075,7.49,28.695
			c-0.412,0.125-0.824,0.246-1.233,0.387c-2.939,1.011-5.921,1.114-8.867,0.307c-2.94-1.056-6.037-0.611-8.66,1.102
			c-2.652,1.731-4.149,4.679-4.338,7.841c-0.778,13.031,2.533,23.601,9.841,31.413c5.645,6.035,12.468,9.058,17.975,10.575v26.306
			c0,31.9,17.405,61.193,45.422,76.447c6.886,3.748,14.44,5.622,21.994,5.622c0.667,0,1.333-0.033,2-0.062v31.737
			c0,25.337-18.617,46.403-42.889,50.25c1.322-6.678,2.004-13.533,2.004-20.494v-11.54c0-5.522-4.477-10-10-10s-10,4.478-10,10
			v11.54c0,22.561-8.785,43.771-24.738,59.723c-1.875,1.876-2.929,4.419-2.929,7.071v68c0,1.514,0.343,2.993,0.987,4.333h-19.03
			V347.668c0-5.522-4.477-10-10-10s-10,4.478-10,10v10.737c0,19.107-15.545,34.652-34.652,34.652h-62.952
			c5.233-12.564,7.979-26.163,7.979-40.184v-11.54c0-5.522-4.477-10-10-10s-10,4.478-10,10v11.54
			c0,15.989-4.433,31.289-12.682,44.53c-0.074,0.108-0.14,0.22-0.21,0.331c-3.347,5.317-7.294,10.31-11.846,14.862
			c-1.875,1.876-2.929,4.419-2.929,7.071v68c0,1.514,0.343,2.993,0.987,4.333H138V391.543c2.108-1.833,3.447-4.529,3.447-7.542
			c0-5.522-4.477-10-10-10c-41.228,0-74.802-33.541-74.841-74.77l-0.042-44.23h49.734c55.993,0,101.931-43.842,105.309-99h34.06
			c5.523,0,10-4.478,10-10c0-5.522-4.477-10-10-10H110.5c-60.93,0-110.5,49.57-110.5,110.5v61.417c0,5.522,4.477,10,10,10
			s10-4.478,10-10v-61.417c0-40.339,26.531-74.594,63.059-86.243c-4.158,3.188-8.136,6.665-11.902,10.434
			c-22.345,22.371-34.631,52.104-34.594,83.724l0.043,44.835c0.046,47.681,35.488,87.242,81.394,93.792v108.958
			c0,5.522,4.477,10,10,10h87.647c4.012,0,7.636-2.398,9.205-6.092c1.568-3.692,0.777-7.966-2.009-10.853l-11.029-11.428v-60.342
			l8.519-10.229h38.35c13.143,0,25.215-4.665,34.652-12.423v101.367c0,5.522,4.477,10,10,10h94.564c4.012,0,7.636-2.398,9.205-6.092
			c1.568-3.692,0.777-7.966-2.009-10.853l-11.029-11.428v-58.1c15.26-13.186,24.203-31.979,24.869-52.114
			c12.955-12.851,20.994-30.652,20.994-50.298v-37.301c28.013-15.255,45.416-44.546,45.416-76.443V183.14
			c5.262-1.622,11.487-4.626,16.705-10.205C509.358,165.122,512.669,154.553,511.891,141.522z M85.308,184.826
			c18.567-18.588,43.261-28.825,69.533-28.825H164h27.541c-3.344,44.118-40.284,79-85.243,79H58.442
			C62.177,216.117,71.396,198.755,85.308,184.826z M194.13,413.268c-1.497,1.797-2.316,4.062-2.316,6.4v68
			c0,1.514,0.343,2.993,0.987,4.333h-8.679l-8.079-8.371v-59.938c3.122-3.379,5.991-6.934,8.611-10.635h9.652L194.13,413.268z
			 M379.991,411.237l-2.276,1.871c-2.31,1.901-3.649,4.735-3.649,7.726v66.834c0,1.514,0.343,2.993,0.987,4.333h-15.595l-8.08-8.372
			v-59.937c8.186-8.859,14.671-18.904,19.302-29.733c8.907-0.203,17.412-2.048,25.223-5.259
			C392.767,397.398,387.339,405.196,379.991,411.237z M472.072,116.826c-1.766,4.519-4.383,8.671-7.718,12.241
			c-2.542-1.93-5.181-3.71-7.919-5.31L472.072,116.826z M376.589,123.758c-2.738,1.599-5.377,3.38-7.919,5.31
			c-3.336-3.57-5.952-7.722-7.718-12.241L376.589,123.758z M430.359,268.255c-7.782,4.236-17.077,4.237-24.861-0.001
			c-3.061-1.667-5.952-3.558-8.669-5.635c0.361-0.404,0.722-0.809,1.108-1.194c11.023-11.023,28.961-11.023,39.985,0.001
			c0.385,0.385,0.752,0.785,1.113,1.189C436.316,264.694,433.423,266.587,430.359,268.255z M487.54,159.172
			c-3.288,3.584-7.928,4.98-10.858,5.524c-0.438-0.059-0.882-0.1-1.337-0.1c-5.524-0.001-10.001,4.476-10.001,9.999v34.778
			c0,14.185-4.475,27.695-12.404,38.847c-0.294-0.31-0.573-0.634-0.876-0.937c-18.822-18.819-49.447-18.821-68.27,0
			c-0.302,0.302-0.594,0.612-0.887,0.921c-7.922-11.149-12.394-24.653-12.394-38.832v-34.778c0-5.498-4.439-9.958-9.929-9.996
			v-0.004c0.008-0.001-8.417-0.288-13.536-5.869c-1.553-1.692-2.703-3.793-3.446-6.285c2.519-0.291,5.021-0.858,7.469-1.7
			c10.16-3.498,20.651,5.837,22.081,7.173c0.036,0.038,0.072,0.075,0.108,0.113c4.054,4.149,9.692,3.775,13.167,1.263
			c4.015-2.904,5.297-8.313,3.014-12.711c-0.462-0.89-1.25-1.871-2.246-2.882c0.129,0.115,0.251,0.231,0.366,0.349
			c-0.136-0.138-0.275-0.271-0.417-0.399c-0.569-0.575-1.22-1.159-1.899-1.741c9.329-5.813,20.159-8.959,31.266-8.959
			c11.583,0,22.867,3.417,32.459,9.718c-0.535,0.47-1.047,0.94-1.508,1.405c-0.151,0.138-0.299,0.28-0.444,0.428
			c0.117-0.118,0.241-0.237,0.372-0.354c-0.122,0.124-0.24,0.247-0.355,0.37l-0.001,0.002c-0.826,0.879-1.482,1.729-1.888,2.51
			c-2.284,4.397-1.002,9.806,3.013,12.711c3.475,2.513,9.114,2.889,13.167-1.262c0.037-0.039,0.074-0.077,0.111-0.116
			c1.432-1.339,11.917-10.667,22.078-7.172c2.447,0.843,4.95,1.409,7.471,1.699C490.243,155.378,489.093,157.479,487.54,159.172z"/>
	</g>
</g>
<g>
	<g>
		<path d="M387.439,195.872h-0.205c-5.523,0-10,4.478-10,10c0,5.522,4.477,10,10,10h0.205c5.523,0,10-4.478,10-10
			C397.439,200.35,392.962,195.872,387.439,195.872z"/>
	</g>
</g>
<g>
	<g>
		<path d="M445.524,195.872h-0.205c-5.523,0-10,4.478-10,10c0,5.522,4.477,10,10,10h0.205c5.523,0,10-4.478,10-10
			C455.524,200.35,451.047,195.872,445.524,195.872z"/>
	</g>
</g>
<g>
	<g>
		<path d="M17.07,341.931c-1.86-1.861-4.44-2.93-7.07-2.93s-5.21,1.07-7.07,2.93c-1.86,1.86-2.93,4.44-2.93,7.07
			s1.07,5.21,2.93,7.069c1.86,1.861,4.44,2.931,7.07,2.931s5.21-1.071,7.07-2.931c1.86-1.859,2.93-4.439,2.93-7.069
			S18.93,343.791,17.07,341.931z"/>
	</g>
</g>
<g>
	<g>
		<path d="M282.974,224.417H238.82c-15.038,0-27.272,12.234-27.272,27.272c0,4.01-3.262,7.272-7.272,7.272h-0.815
			c-16.428,0-29.794,13.365-29.794,29.794s13.366,29.794,29.794,29.794h79.514c25.953,0,47.066-21.114,47.066-47.066
			C330.041,245.531,308.927,224.417,282.974,224.417z M282.975,298.549H203.46c-5.4,0-9.794-4.394-9.794-9.794
			c0-5.4,4.394-9.794,9.794-9.794h0.815c15.038,0,27.272-12.234,27.272-27.272c0-4.01,3.262-7.272,7.272-7.272h44.154
			c14.925,0,27.068,12.141,27.068,27.066S297.899,298.549,282.975,298.549z"/>
	</g>
</g>
<g>
	<g>
		<path d="M295.457,62.145C284.917,51.606,270.905,45.801,256,45.801c-14.905,0-28.917,5.804-39.456,16.343
			c-3.906,3.907-3.905,10.238,0,14.143c1.952,1.952,4.512,2.929,7.071,2.929c2.559,0,5.118-0.977,7.072-2.928
			c6.762-6.762,15.751-10.486,25.314-10.486s18.552,3.723,25.314,10.486c3.905,3.904,10.237,3.904,14.142,0
			C299.362,72.382,299.362,66.051,295.457,62.145z"/>
	</g>
</g>
<g>
	<g>
		<path d="M327.842,29.759C308.652,10.569,283.138,0.001,256,0.001s-52.652,10.568-71.842,29.757
			c-3.906,3.906-3.905,10.238,0,14.143c1.952,1.952,4.512,2.929,7.071,2.929s5.118-0.977,7.071-2.929
			c15.412-15.413,35.903-23.9,57.7-23.9s42.288,8.487,57.7,23.9c3.905,3.905,10.237,3.905,14.142,0.001
			C331.747,39.996,331.747,33.664,327.842,29.759z"/>
	</g>
</g>
<g>
	<g>
		<path d="M263.07,94.741c-1.86-1.861-4.44-2.931-7.07-2.931s-5.21,1.071-7.07,2.931C247.07,96.6,246,99.18,246,101.81
			c0,2.641,1.07,5.21,2.93,7.08c1.86,1.86,4.44,2.92,7.07,2.92s5.21-1.06,7.07-2.92c1.86-1.87,2.93-4.439,2.93-7.08
			C266,99.18,264.93,96.6,263.07,94.741z"/>
	</g>
</g>
</svg>
