<?xml version="1.0" encoding="iso-8859-1"?>
<!-- Generator: Adobe Illustrator 19.0.0, SVG Export Plug-In . SVG Version: 6.00 Build 0)  -->
<svg version="1.1" id="Capa_1" xmlns="http://www.w3.org/2000/svg" xmlns:xlink="http://www.w3.org/1999/xlink" x="0px" y="0px"
	 viewBox="0 0 512.001 512.001" style="enable-background:new 0 0 512.001 512.001;" xml:space="preserve">
<g>
	<g>
		<path d="M509.072,473.608l-21.321-21.32c-3.906-3.904-10.236-3.904-14.143,0c-3.905,3.905-3.905,10.237,0,14.143l4.25,4.249
			h-99.199v-88.27c0.038-1.639,0.041-3.35,0-5.123V343.47c2.721,0.263,5.861,0.449,9.319,0.449c15.865,0,38.313-3.903,56.561-22.15
			c31.249-31.249,20.171-74.518,19.685-76.344c-0.923-3.461-3.626-6.165-7.088-7.087c-1.826-0.487-45.095-11.565-76.344,19.684
			c-20.907,20.908-22.983,47.327-21.934,63.044c-1.72-2.092-3.574-4.153-5.588-6.167c-35.863-35.863-85.552-23.141-87.65-22.583
			c-3.462,0.923-6.165,3.626-7.088,7.088c-0.559,2.098-13.28,51.786,22.583,87.65c20.94,20.94,46.709,25.42,64.93,25.42
			c4.807,0,9.085-0.313,12.614-0.716v58.922H158.222v-9.215c1.975,0.151,4.155,0.251,6.507,0.251c13.898,0,33.57-3.421,49.569-19.42
			c27.395-27.396,17.69-65.299,17.265-66.898c-0.923-3.462-3.626-6.165-7.088-7.088c-1.601-0.427-39.503-10.132-66.898,17.264
			c-3.807,3.807-6.88,7.825-9.386,11.921c-2.506-4.096-5.579-8.114-9.386-11.921c-27.396-27.395-65.298-17.688-66.898-17.264
			c-3.462,0.923-6.165,3.626-7.088,7.088c-0.426,1.6-10.13,39.503,17.265,66.898c16,16,35.671,19.42,49.569,19.42
			c2.376,0,4.579-0.102,6.57-0.256v9.22H40.938V170c0-5.523-4.478-10-10-10c-5.522,0-10,4.477-10,10v310.679c0,5.522,4.478,10,10,10
			h446.92l-4.25,4.25c-3.905,3.905-3.905,10.237,0,14.143c1.953,1.952,4.512,2.929,7.071,2.929s5.118-0.977,7.071-2.929
			l21.321-21.321c1.875-1.876,2.929-4.419,2.929-7.071C512,478.028,510.947,475.483,509.072,473.608z M394.934,272.164
			c17.362-17.362,40.293-16.965,51.042-15.583c1.385,10.771,1.775,33.69-15.58,51.044c-11.557,11.557-25.899,15.244-37.364,16.045
			l17.009-17.009c3.905-3.905,3.905-10.237,0-14.143c-3.906-3.904-10.236-3.904-14.143,0l-17.009,17.009
			C379.689,298.064,383.376,283.721,394.934,272.164z M335.603,355.243c-3.904-3.902-10.234-3.904-14.143,0
			c-3.905,3.905-3.905,10.237,0,14.143l22.979,22.979c-14.299-0.294-33.78-4.05-49.182-19.454
			c-21.542-21.542-20.309-50.131-18.532-62.4c12.291-1.777,40.868-3.005,62.402,18.53c15.407,15.407,19.163,34.891,19.457,49.184
			L335.603,355.243z M138.206,438.014c-0.058,1.237-0.146,2.389-0.251,3.428c-9.484,0.966-27.832,0.61-41.73-13.29
			c-13.905-13.905-14.129-32.164-13.104-41.525c9.354-1.005,27.678-0.776,41.541,13.088c10.224,10.223,13.117,22.852,13.551,32.585
			C138.145,434.307,138.146,436.226,138.206,438.014z M158.179,432.647c0.391-9.791,3.228-22.621,13.54-32.932
			c13.903-13.904,32.158-14.132,41.525-13.104c1.007,9.355,0.778,27.675-13.089,41.541c-13.892,13.893-32.222,14.258-41.715,13.292
			c-0.111-1.118-0.203-2.365-0.258-3.71C158.231,436.13,158.231,434.425,158.179,432.647z"/>
	</g>
</g>
<g>
	<g>
		<path d="M58.947,23.867L38.009,2.929C36.133,1.054,33.59,0,30.938,0c-2.652,0-5.195,1.054-7.071,2.929L2.929,23.867
			c-3.905,3.905-3.905,10.237,0,14.142c3.906,3.905,10.236,3.905,14.143,0l3.866-3.866v57.643c0,5.523,4.478,10,10,10
			c5.522,0,10-4.477,10-10V34.142l3.867,3.867c1.953,1.953,4.512,2.929,7.071,2.929c2.559,0,5.118-0.977,7.071-2.929
			C62.852,34.104,62.852,27.772,58.947,23.867z"/>
	</g>
</g>
<g>
	<g>
		<path d="M38.01,125.48c-1.86-1.86-4.44-2.93-7.07-2.93c-2.64,0-5.22,1.07-7.069,2.93c-1.86,1.86-2.931,4.43-2.931,7.07
			c0,2.63,1.07,5.21,2.931,7.07c1.859,1.86,4.43,2.93,7.069,2.93c2.63,0,5.21-1.07,7.07-2.93s2.93-4.44,2.93-7.07
			S39.871,127.34,38.01,125.48z"/>
	</g>
</g>
<g>
	<g>
		<path d="M196.345,195.568l-41.052-41.052c-1.876-1.875-4.419-2.929-7.071-2.929c-2.652,0-5.195,1.054-7.071,2.929l-41.053,41.052
			c-26.535,26.536-26.535,69.711,0,96.248c13.267,13.266,30.695,19.9,48.123,19.9c17.429,0,34.856-6.634,48.124-19.901
			C222.88,265.279,222.88,222.103,196.345,195.568z M182.201,277.672c-18.736,18.737-49.226,18.739-67.962,0
			c-18.736-18.737-18.736-49.225,0.001-67.962l33.981-33.981l33.98,33.981C200.938,228.447,200.938,258.935,182.201,277.672z"/>
	</g>
</g>
<g>
	<g>
		<path d="M368.658,50.852c-25.906,0-46.982,21.076-46.982,46.982s21.076,46.982,46.982,46.982s46.982-21.076,46.982-46.982
			S394.564,50.852,368.658,50.852z M368.658,124.815c-14.878,0-26.982-12.104-26.982-26.982s12.105-26.982,26.982-26.982
			c14.878,0,26.982,12.104,26.982,26.982S383.536,124.815,368.658,124.815z"/>
	</g>
</g>
<g>
	<g>
		<path d="M368.658,0c-5.522,0-10,4.477-10,10v6.298c0,5.523,4.478,10,10,10c5.522,0,10-4.477,10-10V10
			C378.658,4.477,374.18,0,368.658,0z"/>
	</g>
</g>
<g>
	<g>
		<path d="M368.658,169.368c-5.522,0-10,4.477-10,10v6.298c0,5.523,4.478,10,10,10c5.522,0,10-4.477,10-10v-6.298
			C378.658,173.845,374.18,169.368,368.658,169.368z"/>
	</g>
</g>
<g>
	<g>
		<path d="M456.492,87.834h-6.298c-5.522,0-10,4.477-10,10s4.477,10,10,10h6.298c5.522,0,10-4.477,10-10
			S462.014,87.834,456.492,87.834z"/>
	</g>
</g>
<g>
	<g>
		<path d="M287.123,87.834h-6.299c-5.522,0-10,4.477-10,10s4.478,10,10,10h6.299c5.522,0,10-4.477,10-10
			S292.645,87.834,287.123,87.834z"/>
	</g>
</g>
<g>
	<g>
		<path d="M318.074,148.417c-3.904-3.906-10.237-3.906-14.141,0l-4.453,4.454c-3.905,3.906-3.905,10.237,0.001,14.142
			c1.952,1.953,4.511,2.929,7.07,2.929s5.119-0.977,7.071-2.929l4.453-4.454C321.98,158.653,321.98,152.322,318.074,148.417z"/>
	</g>
</g>
<g>
	<g>
		<path d="M437.837,28.654c-3.902-3.904-10.235-3.906-14.142,0l-4.454,4.454c-3.906,3.905-3.906,10.236-0.001,14.142
			c1.953,1.953,4.512,2.929,7.072,2.929c2.559,0,5.118-0.976,7.07-2.929l4.454-4.454C441.742,38.891,441.742,32.56,437.837,28.654z"
			/>
	</g>
</g>
<g>
	<g>
		<path d="M318.075,33.108l-4.453-4.454c-3.903-3.904-10.236-3.906-14.142,0c-3.906,3.905-3.906,10.236-0.001,14.142l4.454,4.454
			c1.952,1.953,4.512,2.929,7.071,2.929s5.118-0.976,7.07-2.929C321.98,43.345,321.98,37.014,318.075,33.108z"/>
	</g>
</g>
<g>
	<g>
		<path d="M437.836,152.87l-4.454-4.454c-3.904-3.905-10.237-3.905-14.142,0c-3.905,3.906-3.905,10.237,0.001,14.142l4.455,4.454
			c1.952,1.953,4.511,2.929,7.07,2.929s5.119-0.977,7.071-2.929C441.742,163.106,441.742,156.775,437.836,152.87z"/>
	</g>
</g>
</svg>
