<?xml version="1.0" encoding="iso-8859-1"?>
<!-- Generator: Adobe Illustrator 19.0.0, SVG Export Plug-In . SVG Version: 6.00 Build 0)  -->
<svg version="1.1" id="Capa_1" xmlns="http://www.w3.org/2000/svg" xmlns:xlink="http://www.w3.org/1999/xlink" x="0px" y="0px"
	 viewBox="0 0 512 512" style="enable-background:new 0 0 512 512;" xml:space="preserve">
<g>
	<g>
		<path d="M17.07,451.37c-1.86-1.86-4.44-2.931-7.07-2.931s-5.21,1.07-7.07,2.931C1.07,453.229,0,455.81,0,458.439
			c0,2.629,1.07,5.21,2.93,7.07c1.86,1.861,4.44,2.93,7.07,2.93s5.21-1.069,7.07-2.93c1.86-1.861,2.93-4.44,2.93-7.07
			S18.93,453.229,17.07,451.37z"/>
	</g>
</g>
<g>
	<g>
		<path d="M502,488.5H10c-5.523,0-10,4.478-10,10c0,5.522,4.477,10,10,10h492c5.523,0,10-4.478,10-10
			C512,492.978,507.523,488.5,502,488.5z"/>
	</g>
</g>
<g>
	<g>
		<path d="M502,448.438H298v-70c0-5.522-4.477-10-10-10h-2v-38c0-5.522-4.477-10-10-10h-10V311.5c0-5.522-4.477-10-10-10
			s-10,4.478-10,10v8.938h-10c-5.523,0-10,4.477-10,10v38h-2c-5.523,0-10,4.478-10,10v70H43.667c-5.523,0-10,4.478-10,10
			c0,5.522,4.477,10,10,10H224c5.523,0,10-4.478,10-10v-70h2h40h2v70c0,5.522,4.477,10,10,10h214c5.523,0,10-4.478,10-10
			C512,452.916,507.523,448.438,502,448.438z M266,368.438h-20v-28h20V368.438z"/>
	</g>
</g>
<g>
	<g>
		<path d="M256,81.5c-5.523,0-10,4.477-10,10v20c0,5.523,4.477,10,10,10s10-4.477,10-10v-20C266,85.977,261.523,81.5,256,81.5z"/>
	</g>
</g>
<g>
	<g>
		<path d="M256,159.5c-5.523,0-10,4.477-10,10v20c0,5.523,4.477,10,10,10s10-4.477,10-10v-20C266,163.977,261.523,159.5,256,159.5z"
			/>
	</g>
</g>
<g>
	<g>
		<path d="M256,237.5c-5.523,0-10,4.477-10,10v20c0,5.522,4.477,10,10,10s10-4.478,10-10v-20C266,241.977,261.523,237.5,256,237.5z"
			/>
	</g>
</g>
<g>
	<g>
		<path d="M256,3.5c-5.523,0-10,4.477-10,10v20c0,5.523,4.477,10,10,10s10-4.477,10-10v-20C266,7.977,261.523,3.5,256,3.5z"/>
	</g>
</g>
<g>
	<g>
		<path d="M300.545,257.858c-5.08-2.163-10.955,0.199-13.12,5.279c-2.645,6.208-5.226,12.537-7.669,18.813
			c-2.002,5.146,0.546,10.942,5.692,12.946c1.192,0.464,2.419,0.684,3.625,0.684c4.003,0,7.782-2.42,9.321-6.374
			c2.369-6.084,4.869-12.218,7.431-18.229C307.99,265.897,305.626,260.023,300.545,257.858z"/>
	</g>
</g>
<g>
	<g>
		<path d="M336.558,188.709c-4.774-2.772-10.896-1.148-13.668,3.628c-3.383,5.829-6.721,11.793-9.92,17.729
			c-2.62,4.862-0.803,10.928,4.059,13.548c1.509,0.813,3.134,1.199,4.735,1.199c3.559,0,7.005-1.905,8.812-5.258
			c3.099-5.751,6.333-11.531,9.61-17.178C342.959,197.601,341.334,191.481,336.558,188.709z"/>
	</g>
</g>
<g>
	<g>
		<path d="M432.539,66.212c-3.958-3.852-10.289-3.766-14.141,0.191c-4.696,4.825-9.385,9.797-13.937,14.778
			c-3.725,4.077-3.439,10.402,0.638,14.128c1.918,1.753,4.334,2.618,6.742,2.618c2.711,0,5.413-1.096,7.386-3.255
			c4.41-4.827,8.953-9.645,13.503-14.319C436.582,76.395,436.497,70.064,432.539,66.212z"/>
	</g>
</g>
<g>
	<g>
		<path d="M491.057,14.713c-3.456-4.308-9.749-5-14.058-1.546c-5.252,4.212-10.516,8.571-15.644,12.957
			c-4.197,3.59-4.69,9.902-1.1,14.1c1.977,2.312,4.782,3.5,7.604,3.5c2.299,0,4.61-0.789,6.495-2.4
			c4.968-4.249,10.068-8.472,15.157-12.553C493.82,25.316,494.511,19.022,491.057,14.713z"/>
	</g>
</g>
<g>
	<g>
		<path d="M380.778,124.504c-4.401-3.336-10.673-2.476-14.011,1.925c-4.07,5.368-8.114,10.877-12.019,16.377
			c-3.196,4.504-2.137,10.746,2.366,13.943c1.757,1.247,3.778,1.847,5.78,1.847c3.13,0,6.213-1.466,8.163-4.212
			c3.783-5.329,7.701-10.668,11.646-15.869C386.04,134.115,385.179,127.842,380.778,124.504z"/>
	</g>
</g>
<g>
	<g>
		<path d="M402.501,263.432c-1.979-5.157-7.762-7.73-12.919-5.753c-6.458,2.479-12.894,5.27-19.126,8.295
			c-4.968,2.412-7.04,8.394-4.629,13.363c1.729,3.562,5.293,5.635,9.003,5.635c1.465,0,2.953-0.323,4.36-1.006
			c5.722-2.777,11.629-5.34,17.558-7.615C401.904,274.372,404.48,268.588,402.501,263.432z"/>
	</g>
</g>
<g>
	<g>
		<path d="M333.954,300.034c-3.558-4.224-9.866-4.765-14.09-1.207c-5.298,4.463-10.466,9.207-15.36,14.103
			c-3.905,3.905-3.905,10.236,0,14.142c1.953,1.953,4.512,2.929,7.071,2.929s5.119-0.977,7.071-2.93
			c4.493-4.493,9.238-8.85,14.102-12.946C336.972,310.566,337.512,304.258,333.954,300.034z"/>
	</g>
</g>
<g>
	<g>
		<path d="M468.918,241.605c-6.918,0.229-13.911,0.761-20.783,1.581c-5.484,0.654-9.4,5.629-8.746,11.114
			c0.606,5.081,4.923,8.816,9.917,8.816c0.395,0,0.794-0.023,1.196-0.071c6.309-0.753,12.728-1.24,19.079-1.451
			c5.52-0.184,9.846-4.807,9.663-10.326C479.061,245.749,474.455,241.445,468.918,241.605z"/>
	</g>
</g>
<g>
	<g>
		<path d="M107.539,81.182c-4.552-4.981-9.24-9.954-13.937-14.778c-3.852-3.957-10.183-4.043-14.141-0.191
			s-4.043,10.183-0.191,14.141c4.55,4.673,9.094,9.491,13.503,14.318c1.973,2.159,4.674,3.255,7.386,3.255
			c2.408,0,4.824-0.865,6.742-2.617C110.978,91.584,111.264,85.259,107.539,81.182z"/>
	</g>
</g>
<g>
	<g>
		<path d="M157.252,142.805c-3.904-5.5-7.948-11.01-12.019-16.377c-3.337-4.4-9.611-5.261-14.011-1.925
			c-4.4,3.337-5.262,9.61-1.925,14.011c3.945,5.201,7.863,10.54,11.646,15.869c1.95,2.747,5.033,4.212,8.163,4.212
			c2.001,0,4.023-0.6,5.78-1.847C159.389,153.551,160.449,147.309,157.252,142.805z"/>
	</g>
</g>
<g>
	<g>
		<path d="M50.645,26.124c-5.128-4.385-10.392-8.745-15.644-12.957c-4.309-3.454-10.602-2.762-14.058,1.546
			c-3.454,4.309-2.762,10.603,1.546,14.058c5.089,4.081,10.188,8.304,15.157,12.553c1.885,1.612,4.195,2.4,6.495,2.4
			c2.822,0,5.627-1.188,7.604-3.5C55.335,36.027,54.842,29.714,50.645,26.124z"/>
	</g>
</g>
<g>
	<g>
		<path d="M228.485,272.519c-1.234-3.028-2.492-6.048-3.764-9.039c-2.164-5.086-7.984-7.771-13.105-5.691
			c-5.192,2.108-7.629,8.053-5.441,13.186c1.282,3.008,2.548,6.045,3.789,9.09c2.057,5.05,7.764,7.534,12.845,5.556l0.084-0.033
			C228.087,283.565,230.589,277.68,228.485,272.519z"/>
	</g>
</g>
<g>
	<g>
		<path d="M199.03,210.067c-3.199-5.936-6.537-11.901-9.92-17.729c-2.773-4.776-8.893-6.399-13.668-3.628
			c-4.776,2.772-6.401,8.892-3.628,13.668c3.277,5.646,6.511,11.425,9.61,17.177c1.807,3.353,5.252,5.258,8.812,5.258
			c1.602,0,3.227-0.386,4.735-1.199C199.833,220.994,201.65,214.928,199.03,210.067z"/>
	</g>
</g>
<g>
	<g>
		<path d="M207.495,312.929c-4.894-4.896-10.062-9.64-15.36-14.103c-4.224-3.558-10.532-3.019-14.091,1.206
			c-3.558,4.224-3.018,10.532,1.206,14.091c4.865,4.098,9.61,8.454,14.103,12.947c1.953,1.953,4.512,2.93,7.071,2.93
			s5.118-0.977,7.071-2.929C211.4,323.166,211.401,316.835,207.495,312.929z"/>
	</g>
</g>
<g>
	<g>
		<path d="M141.544,265.974c-6.232-3.025-12.667-5.816-19.126-8.295c-5.154-1.979-10.94,0.597-12.919,5.753
			s0.597,10.94,5.753,12.919c5.929,2.275,11.836,4.838,17.558,7.615c1.407,0.683,2.895,1.006,4.36,1.006
			c3.71,0,7.274-2.073,9.003-5.635C148.585,274.368,146.512,268.386,141.544,265.974z"/>
	</g>
</g>
<g>
	<g>
		<path d="M63.865,243.185c-6.872-0.819-13.865-1.351-20.783-1.581c-5.526-0.157-10.142,4.144-10.326,9.664
			c-0.183,5.52,4.143,10.143,9.663,10.326c6.351,0.211,12.77,0.698,19.079,1.451c0.402,0.048,0.801,0.071,1.196,0.071
			c4.994,0,9.311-3.735,9.917-8.817C73.265,248.815,69.349,243.839,63.865,243.185z"/>
	</g>
</g>
</svg>
