<?xml version="1.0" encoding="iso-8859-1"?>
<!-- Generator: Adobe Illustrator 19.0.0, SVG Export Plug-In . SVG Version: 6.00 Build 0)  -->
<svg version="1.1" id="Capa_1" xmlns="http://www.w3.org/2000/svg" xmlns:xlink="http://www.w3.org/1999/xlink" x="0px" y="0px"
	 viewBox="0 0 512.003 512.003" style="enable-background:new 0 0 512.003 512.003;" xml:space="preserve">
<g>
	<g>
		<path d="M84.013,367.59l-0.234-0.477c-2.456-4.947-8.456-6.966-13.404-4.51c-4.946,2.457-6.966,8.458-4.51,13.404l0.188,0.379
			c1.736,3.545,5.29,5.604,8.988,5.604c1.476,0,2.976-0.328,4.391-1.021C84.391,378.54,86.443,372.55,84.013,367.59z"/>
	</g>
</g>
<g>
	<g>
		<path d="M502.003,243.265h-1.336c-21.191,0-41.51-9.896-55.096-26.657l32.399-62.821c2.51-4.867,0.639-10.847-4.196-13.415
			c-28.338-15.05-63.63-4.281-78.746,24.006l-2.927,5.17c-20.657-10.703-43.651-16.319-67.099-16.319h-135
			c-51.915,0-97.582,27.241-123.474,68.176c-0.023,0.029-0.049,0.054-0.072,0.084c-6.293,8.152-15.8,12.374-26.079,11.562
			c-5.894-0.461-11.251-3.188-15.086-7.68c-3.834-4.491-5.687-10.21-5.217-16.104c0.688-8.645,8.257-15.122,16.929-14.451
			c6.042,0.473,9.589,4.286,9.507,10.211c-0.236,0.844-1.531,2.11-2.549,2.609c-2.639-4.802-8.658-6.589-13.495-3.991
			c-4.865,2.614-6.69,8.677-4.077,13.542c4.488,8.355,12.797,12.217,21.685,10.087c10.12-2.429,18.216-11.955,18.43-21.687
			c0.362-16.5-11.388-29.416-27.94-30.711c-19.636-1.519-36.863,13.18-38.426,32.803c-0.895,11.224,2.637,22.118,9.943,30.677
			c7.306,8.559,17.513,13.756,28.737,14.634c1.322,0.104,2.639,0.154,3.95,0.154c3.033,0,6.029-0.283,8.962-0.817
			c-5.009,14.727-7.728,30.502-7.728,46.902c0,12.732,2.031,25.526,6.209,39.113c1.623,5.277,7.216,8.241,12.498,6.619
			c5.278-1.624,8.242-7.219,6.619-12.498c-3.584-11.653-5.326-22.524-5.326-33.234c0-69.477,56.523-126,126-126h135
			c23.24,0,45.956,6.389,65.691,18.476c4.148,2.541,9.512,1.714,12.723-1.942c0.597-0.679,1.086-1.42,1.468-2.2l7.61-13.44
			c0.045-0.078,0.088-0.157,0.13-0.236c8.305-15.631,25.974-23.155,42.451-19.34l-30.173,58.506c-1.761,3.414-1.41,7.533,0.9,10.601
			l0.347,0.459c0.296,0.392,0.592,0.782,0.877,1.173c15.528,21.389,39.356,35.025,64.976,37.556v28.415h-2c-5.522,0-10,4.478-10,10
			c0,5.522,4.478,10,10,10h2v20.842c0,1.707-1.389,3.096-3.096,3.096h-35.884c-4.22,0-7.985,2.648-9.411,6.62
			c-9.404,26.185-27.556,48.853-51.113,63.829c-2.35,1.493-3.971,3.899-4.472,6.639l-11.525,62.987
			c-0.718,3.923,0.965,7.889,4.263,10.103c1.023,0.922,2.666,3.382,4.513,6.631h-17.66h-13.346
			c-1.757-12.208-5.402-35.483-10.722-59.246c-1.075-4.802-5.493-8.095-10.396-7.795c-2.804,0.179-5.546,0.27-8.151,0.27h-25
			c-0.017,0-0.034,0-0.051,0h-109.95c-9.818,0-19.611-1.139-29.105-3.383c-2.668-0.631-5.477-0.14-7.771,1.36
			c-2.294,1.5-3.873,3.875-4.366,6.571l-8.322,45.489c-0.438,2.396,0.013,4.868,1.268,6.954l5.882,9.779h-0.342h-29.184
			c-2.518-15.537-8.592-49.546-18.163-81.927c-1.565-5.296-7.123-8.318-12.425-6.755c-5.296,1.565-8.32,7.128-6.755,12.425
			c12.245,41.424,18.8,87.2,18.864,87.658c0.698,4.932,4.92,8.599,9.901,8.599h93.549c3.604,0,6.931-1.94,8.705-5.078
			s1.722-6.987-0.136-10.076l-13.05-21.7l5.475-29.921h88.039c6.263,29.947,9.804,57.722,9.843,58.023
			c0.631,4.999,4.883,8.748,9.921,8.748h89.507c3.357,0,6.491-1.686,8.343-4.486c1.852-2.802,2.173-6.345,0.856-9.434
			c-2.89-6.782-7.906-17.456-13.428-24.305l9.824-53.691c23.52-15.987,42.049-38.72,52.938-64.893h29.037
			c12.735,0,23.096-10.36,23.096-23.096v-78.83C512.003,247.743,507.525,243.265,502.003,243.265z M170.926,491.999V492
			l-10.135-16.851l5.816-31.794c5.656,0.912,11.374,1.49,17.112,1.735l-5.521,30.176c-0.438,2.396,0.013,4.868,1.268,6.954
			l5.883,9.779H170.926z M320.551,491.999c-1.445-10.053-4.173-27.614-8.062-46.771h12.514c0.26,0,0.521-0.001,0.782-0.002
			c3.838,18.352,6.652,35.875,8.266,46.773H320.551z"/>
	</g>
</g>
<g>
	<g>
		<path d="M420.072,261.93c-1.859-1.86-4.439-2.93-7.069-2.93c-2.641,0-5.21,1.069-7.07,2.93c-1.86,1.861-2.93,4.44-2.93,7.07
			s1.069,5.21,2.93,7.069c1.86,1.86,4.44,2.931,7.07,2.931s5.209-1.071,7.069-2.931c1.86-1.859,2.931-4.439,2.931-7.069
			S421.933,263.79,420.072,261.93z"/>
	</g>
</g>
<g>
	<g>
		<path d="M295.459,62.143c-21.758-21.756-57.156-21.756-78.914,0c-3.905,3.905-3.905,10.237,0,14.143
			c3.906,3.904,10.236,3.904,14.143,0c13.959-13.959,36.67-13.959,50.629,0c1.953,1.952,4.512,2.929,7.071,2.929
			c2.56,0,5.118-0.977,7.071-2.929C299.364,72.381,299.364,66.049,295.459,62.143z"/>
	</g>
</g>
<g>
	<g>
		<path d="M327.843,29.757C308.655,10.568,283.141,0,256.003,0s-52.652,10.568-71.842,29.758c-3.905,3.905-3.905,10.237,0,14.143
			c3.906,3.903,10.236,3.903,14.142-0.001C213.715,28.487,234.206,20,256.002,20c21.796,0,42.287,8.487,57.699,23.9
			c1.953,1.952,4.512,2.929,7.071,2.929c2.559,0,5.118-0.977,7.071-2.929C331.748,39.995,331.748,33.663,327.843,29.757z"/>
	</g>
</g>
<g>
	<g>
		<path d="M263.071,94.74c-1.859-1.86-4.439-2.931-7.069-2.931c-2.629,0-5.209,1.071-7.07,2.931c-1.86,1.869-2.93,4.439-2.93,7.069
			c0,2.641,1.069,5.21,2.93,7.07c1.86,1.87,4.44,2.93,7.07,2.93c2.63,0,5.21-1.06,7.069-2.93c1.86-1.86,2.931-4.43,2.931-7.07
			C266.002,99.179,264.932,96.609,263.071,94.74z"/>
	</g>
</g>
</svg>
