<?xml version="1.0" encoding="UTF-8" standalone="no"?> <svg width="24" height="24" viewBox="0 0 24 24" fill="none" xmlns="http://www.w3.org/2000/svg">
<path fill-rule="evenodd" clip-rule="evenodd" d="M19.5 3C18.6716 3 18 3.67157 18 4.5C18 5.32843 18.6716 6 19.5 6C20.3284 6 21 5.32843 21 4.5C21 3.67157 20.3284 3 19.5 3ZM16 4.5C16 2.567 17.567 1 19.5 1C21.433 1 23 2.567 23 4.5C23 6.433 21.433 8 19.5 8C17.567 8 16 6.433 16 4.5ZM4 4C3.44772 4 3 4.44772 3 5V20C3 20.5523 3.44772 21 4 21H19C19.5523 21 20 20.5523 20 20V11C20 10.4477 20.4477 10 21 10C21.5523 10 22 10.4477 22 11V20C22 21.6569 20.6569 23 19 23H4C2.34315 23 1 21.6569 1 20V5C1 3.34315 2.34315 2 4 2H13C13.5523 2 14 2.44772 14 3C14 3.55228 13.5523 4 13 4H4Z" fill="#293644"/>
</svg>
