<?xml version="1.0" encoding="UTF-8" standalone="no"?> <svg width="24" height="24" viewBox="0 0 24 24" fill="none" xmlns="http://www.w3.org/2000/svg">
<path fill-rule="evenodd" clip-rule="evenodd" d="M4 1C4.55228 1 5 1.44772 5 2V10.1707C6.16519 10.5825 7 11.6938 7 13C7 14.3062 6.16519 15.4175 5 15.8293V22C5 22.5523 4.55228 23 4 23C3.44772 23 3 22.5523 3 22V15.8293C1.83481 15.4175 1 14.3062 1 13C1 11.6938 1.83481 10.5825 3 10.1707V2C3 1.44772 3.44772 1 4 1ZM12 1C12.5523 1 13 1.44772 13 2V5.17071C14.1652 5.58254 15 6.69378 15 8C15 9.30622 14.1652 10.4175 13 10.8293V22C13 22.5523 12.5523 23 12 23C11.4477 23 11 22.5523 11 22V10.8293C9.83481 10.4175 9 9.30622 9 8C9 6.69378 9.83481 5.58254 11 5.17071V2C11 1.44772 11.4477 1 12 1ZM20 1C20.5523 1 21 1.44772 21 2V13.1707C22.1652 13.5825 23 14.6938 23 16C23 17.3062 22.1652 18.4175 21 18.8293V22C21 22.5523 20.5523 23 20 23C19.4477 23 19 22.5523 19 22V18.8293C17.8348 18.4175 17 17.3062 17 16C17 14.6938 17.8348 13.5825 19 13.1707V2C19 1.44772 19.4477 1 20 1ZM12 7C11.4477 7 11 7.44772 11 8C11 8.55228 11.4477 9 12 9C12.5523 9 13 8.55228 13 8C13 7.44772 12.5523 7 12 7ZM4 12C3.44772 12 3 12.4477 3 13C3 13.5523 3.44772 14 4 14C4.55228 14 5 13.5523 5 13C5 12.4477 4.55228 12 4 12ZM20 15C19.4477 15 19 15.4477 19 16C19 16.5523 19.4477 17 20 17C20.5523 17 21 16.5523 21 16C21 15.4477 20.5523 15 20 15Z" fill="#293644"/>
</svg>
