<?xml version="1.0" encoding="UTF-8" standalone="no"?> <svg width="24" height="24" viewBox="0 0 24 24" fill="none" xmlns="http://www.w3.org/2000/svg">
<path fill-rule="evenodd" clip-rule="evenodd" d="M12 0C12.5523 0 13 0.447715 13 1V2.04938C18.0533 2.5511 22 6.81465 22 12C22 12.3466 21.8205 12.6684 21.5257 12.8506C21.2309 13.0329 20.8628 13.0494 20.5528 12.8944C18.0188 11.6275 15.5281 11.5415 13 12.6365V20.5C13 22.433 11.433 24 9.5 24C7.567 24 6 22.433 6 20.5V20C6 19.4477 6.44772 19 7 19C7.55228 19 8 19.4477 8 20V20.5C8 21.3284 8.67157 22 9.5 22C10.3284 22 11 21.3284 11 20.5V12.6365C8.47189 11.5415 5.9812 11.6275 3.4472 12.8944C3.13721 13.0494 2.76907 13.0329 2.47426 12.8506C2.17945 12.6684 2 12.3466 2 12C2 6.81465 5.94668 2.5511 11 2.04938V1C11 0.447715 11.4477 0 12 0ZM12 10.8923C14.6039 9.71014 17.2362 9.55833 19.8474 10.4368C19.1204 6.76692 15.8833 4 12 4C8.11666 4 4.87957 6.76692 4.15264 10.4369C6.76381 9.55833 9.39613 9.71013 12 10.8923Z" fill="#293644"/>
</svg>
