<?xml version="1.0" encoding="UTF-8" standalone="no"?> <svg width="24" height="24" viewBox="0 0 24 24" fill="none" xmlns="http://www.w3.org/2000/svg">
<path fill-rule="evenodd" clip-rule="evenodd" d="M22.8029 3.16809C22.7912 2.76065 22.5335 2.40106 22.1514 2.25919L22.1465 2.25746C22.117 2.24688 22.0434 2.22056 21.9998 2.20558C21.9074 2.1738 21.7742 2.12937 21.6043 2.07614C21.2647 1.96973 20.7773 1.82784 20.1744 1.68158C18.9713 1.38969 17.2944 1.07698 15.4051 0.998774C11.647 0.843218 6.88047 1.61476 3.44444 5.53779C0.602094 8.78299 0.173989 13.5516 2.93672 16.9022C2.09186 18.5104 1.42029 20.1957 1.02985 21.7574C0.895901 22.2932 1.22166 22.8362 1.75746 22.9701C2.29325 23.1041 2.83619 22.7783 2.97013 22.2425C3.28071 21.0002 3.80173 19.639 4.46675 18.3026C6.22625 19.462 8.65816 19.8824 10.8881 19.4163C13.6464 18.8399 16.2037 16.8864 16.9785 13.206C17.7886 9.35797 19.1695 7.06271 20.2933 5.74814C20.8574 5.08834 21.3637 4.66737 21.7139 4.4177C21.8892 4.29271 22.0259 4.2103 22.1117 4.16222C22.1546 4.13818 22.1849 4.12271 22.2008 4.1148L22.2133 4.10876C22.5815 3.94327 22.8144 3.57226 22.8029 3.16809ZM15.3224 2.99706C11.853 2.85346 7.81618 3.58191 4.94895 6.85553C2.83904 9.26449 2.47615 12.5509 4.03381 15.0113C5.29776 13.0326 6.83655 11.2404 8.44529 10.1679C8.90482 9.86156 9.52569 9.98573 9.83204 10.4453C10.1384 10.9048 10.0142 11.5257 9.55469 11.832C8.21979 12.7219 6.80995 14.3408 5.59799 16.28C5.54359 16.367 5.4897 16.4545 5.43635 16.5424C6.68963 17.4291 8.62108 17.8469 10.4789 17.4586C12.5479 17.0262 14.4278 15.6136 15.0214 12.794C15.8955 8.64206 17.4163 6.03564 18.7731 4.44853C19.0529 4.12125 19.3246 3.83867 19.5805 3.59586C18.4779 3.33467 16.9845 3.06586 15.3224 2.99706Z" fill="#293644"/>
</svg>
