<?xml version="1.0" encoding="UTF-8" standalone="no"?> <svg width="24" height="24" viewBox="0 0 24 24" fill="none" xmlns="http://www.w3.org/2000/svg">
<path fill-rule="evenodd" clip-rule="evenodd" d="M4 3C4 1.34315 5.34315 0 7 0H17C18.6569 0 20 1.34315 20 3V18.581C20 19.8559 19.1943 20.9915 17.9911 21.4126L11.991 23.5126C10.1425 24.1596 8.2132 22.8932 8.01644 21H7C5.34315 21 4 19.6569 4 18V3ZM8 19V5.91896C8 4.64413 8.80569 3.50853 10.0089 3.08739L13.1158 2H7C6.44772 2 6 2.44772 6 3V18C6 18.5523 6.44772 19 7 19H8ZM18 3.81896C18 3.13011 17.3198 2.64754 16.6697 2.8751L10.6696 4.9751C10.2686 5.11548 10 5.49402 10 5.91896V20.681C10 21.3699 10.6802 21.8525 11.3303 21.6249L17.3303 19.5249C17.7314 19.3845 18 19.006 18 18.581V3.81896ZM13 11C13.5523 11 14 11.4477 14 12V14C14 14.5523 13.5523 15 13 15C12.4477 15 12 14.5523 12 14V12C12 11.4477 12.4477 11 13 11Z" fill="#293644"/>
</svg>
